<?xml version="1.0" standalone="no"?>
<!DOCTYPE svg PUBLIC "-//W3C//DTD SVG 20010904//EN"
 "http://www.w3.org/TR/2001/REC-SVG-20010904/DTD/svg10.dtd">
<svg version="1.0" xmlns="http://www.w3.org/2000/svg"
 width="800.000000pt" height="322.000000pt" viewBox="0 0 800.000000 322.000000"
 preserveAspectRatio="xMidYMid meet">

<g transform="translate(0.000000,322.000000) scale(0.100000,-0.100000)"
fill="#000000" stroke="none">
<path d="M3178 2713 l-58 -4 0 -154 0 -155 30 0 c27 0 30 -3 31 -32 1 -18 4
-43 8 -56 6 -23 8 -22 64 27 l58 51 155 0 154 0 0 165 0 165 -192 -2 c-106 -1
-219 -3 -250 -5z m260 -33 l152 0 0 -130 0 -130 -150 0 -149 0 -34 -30 c-19
-16 -37 -30 -41 -30 -3 0 -6 14 -6 30 0 27 -3 30 -30 30 l-30 0 0 136 0 137
68 -6 c37 -4 136 -7 220 -7z"/>
<path d="M3223 2615 c-11 -31 12 -36 153 -33 131 3 139 4 139 23 0 19 -8 20
-143 23 -123 2 -143 0 -149 -13z"/>
<path d="M3220 2510 c0 -19 7 -20 145 -20 138 0 145 1 145 20 0 19 -7 20 -145
20 -138 0 -145 -1 -145 -20z"/>
<path d="M2180 2551 c0 -46 -2 -50 -32 -60 -17 -6 -40 -19 -50 -28 -17 -15
-21 -15 -57 5 -21 12 -43 22 -47 22 -5 0 -19 -18 -32 -40 l-22 -39 40 -21 c40
-20 40 -21 40 -80 0 -59 0 -60 -40 -80 -22 -11 -40 -23 -40 -26 0 -3 10 -22
22 -44 l22 -38 37 19 37 18 61 -36 c58 -34 61 -38 61 -75 l0 -38 45 0 45 0 0
40 c0 37 3 41 44 61 25 11 50 27 56 34 10 12 17 11 43 -6 44 -26 49 -25 75 21
l22 39 -40 21 c-40 20 -40 21 -40 80 0 59 0 60 40 80 22 11 40 23 40 26 0 4
-10 23 -21 44 l-22 38 -44 -21 c-36 -18 -47 -19 -61 -9 -9 7 -34 20 -54 29
-36 15 -38 18 -38 65 l0 48 -45 0 -45 0 0 -49z m97 -156 c2 -6 -9 -26 -25 -44
l-28 -33 -26 40 c-15 22 -24 43 -20 46 10 11 95 2 99 -9z m-97 -59 c25 -38 30
-54 30 -105 0 -73 -12 -78 -68 -27 -33 31 -37 40 -37 84 0 35 6 56 19 71 11
12 20 21 22 21 2 0 17 -20 34 -44z m166 -28 c8 -45 -17 -98 -55 -121 -45 -27
-51 -22 -51 38 0 45 6 64 33 105 31 47 33 48 50 31 10 -9 20 -33 23 -53z"/>
<path d="M2203 2392 c-10 -6 -9 -13 3 -30 19 -28 30 -28 45 -1 9 17 8 23 -2
30 -17 11 -30 11 -46 1z"/>
<path d="M2281 2322 c-14 -20 -21 -45 -21 -76 0 -53 14 -59 50 -21 28 30 32
87 8 111 -14 14 -17 13 -37 -14z"/>
<path d="M6882 2491 c-135 -47 -191 -191 -124 -322 81 -160 319 -160 402 1 38
74 33 173 -10 230 -18 23 -20 24 -36 9 -14 -15 -15 -19 0 -40 22 -35 30 -101
16 -143 -41 -125 -182 -169 -286 -91 -61 46 -85 155 -50 223 47 91 169 127
258 74 26 -15 29 -15 44 0 15 15 14 17 -10 33 -35 23 -95 44 -126 44 -14 0
-49 -8 -78 -18z"/>
<path d="M462 2403 c-52 -25 -85 -76 -90 -138 -6 -71 2 -97 40 -140 54 -62
131 -81 205 -50 50 21 72 42 94 90 42 92 7 194 -83 241 -36 19 -125 17 -166
-3z m118 -108 c23 22 33 26 42 17 9 -9 5 -19 -17 -42 l-29 -30 29 -30 c25 -26
26 -30 11 -36 -11 -4 -26 2 -42 16 l-24 23 -23 -21 c-44 -41 -66 -19 -25 25
l21 23 -23 24 c-14 16 -20 31 -16 42 6 15 10 14 36 -11 l30 -29 30 29z"/>
<path d="M1116 2412 c-3 -5 8 -24 24 -43 37 -43 37 -49 2 -49 -92 0 -242 -67
-320 -143 -76 -75 -142 -219 -142 -314 0 -48 27 -44 35 5 32 191 116 312 263
379 53 25 202 45 202 27 0 -4 -17 -25 -37 -46 -29 -30 -34 -41 -25 -50 9 -9
23 -1 63 37 80 79 80 78 13 146 -59 60 -69 66 -78 51z"/>
<path d="M4530 2230 l0 -100 170 0 170 0 0 100 0 100 -170 0 -170 0 0 -100z
m290 77 c0 -8 9 -22 20 -32 23 -21 29 -94 8 -96 -10 0 -10 -2 0 -6 20 -8 14
-33 -9 -33 -16 0 -20 4 -15 18 6 16 5 16 -8 -1 -12 -15 -30 -17 -145 -16
l-131 1 0 59 c0 49 4 64 23 82 13 12 16 16 7 10 -23 -18 -30 -16 -30 7 0 19 7
20 140 20 111 0 140 -3 140 -13z m40 -13 c0 -22 -2 -25 -15 -14 -8 7 -15 19
-15 26 0 8 7 14 15 14 10 0 15 -10 15 -26z"/>
<path d="M4610 2260 c0 -5 9 -10 20 -10 11 0 20 5 20 10 0 6 -9 10 -20 10 -11
0 -20 -4 -20 -10z"/>
<path d="M4676 2254 c-31 -30 -8 -69 36 -62 26 3 37 41 18 64 -16 18 -35 18
-54 -2z m49 -24 c0 -18 -6 -26 -23 -28 -27 -4 -40 22 -22 44 19 22 45 13 45
-16z"/>
<path d="M4760 2260 c0 -5 9 -10 20 -10 11 0 20 5 20 10 0 6 -9 10 -20 10 -11
0 -20 -4 -20 -10z"/>
<path d="M4760 2230 c0 -5 16 -10 35 -10 19 0 35 5 35 10 0 6 -16 10 -35 10
-19 0 -35 -4 -35 -10z"/>
<path d="M4598 2223 c12 -2 30 -2 40 0 9 3 -1 5 -23 4 -22 0 -30 -2 -17 -4z"/>
<path d="M4618 2193 c6 -2 18 -2 25 0 6 3 1 5 -13 5 -14 0 -19 -2 -12 -5z"/>
<path d="M4768 2193 c6 -2 18 -2 25 0 6 3 1 5 -13 5 -14 0 -19 -2 -12 -5z"/>
<path d="M4550 2186 c0 -2 8 -10 18 -17 15 -13 16 -12 3 4 -13 16 -21 21 -21
13z"/>
<path d="M6920 2300 c-15 -29 -3 -59 26 -66 29 -7 54 10 54 39 0 20 0 20 -21
1 -17 -15 -22 -16 -29 -4 -6 10 -4 21 7 32 15 17 15 18 -5 18 -12 0 -26 -9
-32 -20z"/>
<path d="M1540 2112 c0 -24 -35 -44 -64 -36 -31 7 -43 -12 -22 -35 21 -23 20
-58 -1 -69 -23 -13 -9 -45 16 -37 26 8 71 -22 71 -46 0 -12 7 -19 20 -19 13 0
20 7 20 19 0 26 47 56 64 42 10 -8 17 -7 27 5 11 14 11 18 -4 29 -21 15 -22
61 -2 73 25 13 8 43 -20 36 -31 -8 -65 12 -65 36 0 13 -7 20 -20 20 -12 0 -20
-7 -20 -18z m52 -69 c45 -40 -1 -120 -54 -92 -43 23 -50 57 -18 89 24 24 47
25 72 3z"/>
<path d="M982 2064 c-57 -29 -77 -95 -47 -154 42 -81 166 -77 202 7 41 99 -60
195 -155 147z m116 -50 c30 -34 28 -70 -7 -105 -45 -45 -100 -37 -129 18 -19
35 -14 63 18 95 26 25 36 29 63 24 18 -3 42 -17 55 -32z"/>
<path d="M4951 2013 c90 -3 97 -5 92 -23 -5 -17 -16 -20 -97 -23 l-91 -3 98
-2 c87 -2 97 0 97 16 0 10 5 23 12 30 9 9 -12 12 -97 10 l-110 -2 96 -3z"/>
<path d="M5087 1980 c3 -11 7 -20 9 -20 2 0 4 9 4 20 0 11 -4 20 -9 20 -5 0
-7 -9 -4 -20z"/>
<path d="M5114 1949 c-4 -6 -19 -9 -38 -5 -22 4 -27 3 -16 -4 22 -14 46 -12
60 5 7 8 10 15 7 15 -3 0 -9 -5 -13 -11z"/>
<path d="M6045 1930 c-4 -6 35 -10 109 -10 71 0 116 4 116 10 0 6 -43 10 -109
10 -63 0 -112 -4 -116 -10z"/>
<path d="M6040 1840 l0 -60 85 0 85 0 0 -30 0 -30 110 0 110 0 0 50 0 50 -75
0 c-60 0 -75 3 -75 15 0 12 15 15 75 15 60 0 75 3 75 15 0 12 -15 15 -74 15
-41 0 -78 5 -81 10 -4 6 -55 10 -121 10 l-114 0 0 -60z"/>
<path d="M5693 1713 c-14 -3 -23 -12 -23 -22 0 -15 -11 -19 -60 -24 -188 -17
-372 -195 -410 -396 -43 -228 66 -459 264 -556 120 -60 306 -80 431 -48 l70
18 6 90 c4 50 7 134 8 187 l1 97 -51 -34 c-80 -55 -155 -68 -231 -41 l-38 14
0 -95 0 -95 -54 4 c-69 6 -158 49 -214 105 -50 50 -97 146 -107 216 l-6 47
140 0 c87 0 141 4 141 10 0 6 -54 10 -141 10 l-142 0 7 53 c9 69 56 165 109
217 51 52 145 98 216 107 l51 6 0 -111 0 -111 37 16 c26 10 55 14 89 10 53 -5
140 -44 163 -71 8 -9 17 -16 22 -16 11 0 11 91 2 258 l-6 121 -71 15 c-81 17
-170 25 -203 19z"/>
<path d="M1915 1691 l-140 -6 -3 -417 c-1 -267 -6 -418 -12 -418 -6 0 -10 -37
-10 -90 l0 -90 190 0 190 0 -2 513 -3 512 -35 1 c-19 0 -98 -2 -175 -5z"/>
<path d="M920 1632 l0 -62 60 0 60 0 0 -305 0 -305 -60 0 -60 0 0 -145 0 -145
185 0 185 0 0 180 0 180 140 0 141 0 -3 133 -3 132 -137 3 -138 3 0 49 0 49
158 3 157 3 3 138 3 137 -218 0 c-120 0 -275 3 -345 7 l-128 6 0 -61z"/>
<path d="M2337 1683 c-4 -3 -7 -233 -7 -510 l0 -503 181 0 181 0 -6 228 c-3
125 -8 247 -11 272 l-6 45 38 -70 c21 -38 96 -161 167 -272 l129 -203 178 0
179 0 0 510 0 510 -181 0 -182 0 6 -212 c3 -117 10 -239 17 -271 17 -85 7 -91
-30 -18 -42 83 -158 273 -175 286 -7 6 -41 57 -75 113 l-61 102 -168 0 c-92 0
-171 -3 -174 -7z"/>
<path d="M3470 1524 l0 -165 105 7 105 7 0 -352 0 -351 185 0 185 0 0 351 0
352 105 -7 105 -7 0 165 0 166 -395 0 -395 0 0 -166z"/>
<path d="M4370 1180 l0 -510 25 0 c25 0 25 0 25 95 l0 95 140 0 c77 0 140 -3
140 -7 0 -5 -61 -7 -135 -5 l-135 3 0 -90 c0 -54 4 -91 10 -91 6 0 10 23 10
51 l0 50 53 -3 52 -3 6 -50 6 -50 1 53 c2 49 4 53 25 50 18 -2 23 -11 28 -53
l6 -50 1 53 c2 49 4 53 25 50 19 -3 22 -10 25 -50 l3 -48 195 0 194 0 0 140 0
140 -165 0 -165 0 0 50 0 50 145 0 146 0 -3 133 -3 132 -142 3 -143 3 0 44 0
45 161 0 161 0 -4 140 -3 140 -342 0 -343 0 0 -510z m309 -372 c-1 -17 -3 -18
-6 -6 -4 15 -21 18 -116 21 l-112 3 118 2 c116 2 117 2 116 -20z"/>
<path d="M6140 1180 l0 -510 180 0 180 0 0 180 0 181 113 -3 112 -3 3 -177 2
-178 175 0 175 0 0 510 0 510 -175 0 -175 0 0 -170 0 -170 -115 0 -115 0 0
170 0 170 -180 0 -180 0 0 -510z"/>
<path d="M927 1544 c-14 -14 -7 -24 18 -24 l25 0 0 -255 0 -255 -25 0 c-14 0
-25 -4 -25 -10 0 -5 20 -10 45 -10 l45 0 -2 278 -3 277 -35 3 c-20 2 -39 0
-43 -4z"/>
<path d="M5543 1532 c-126 -44 -212 -150 -225 -273 l-3 -34 126 -3 126 -3 6
30 c4 17 22 48 42 70 l36 39 -3 94 c-3 91 -4 93 -28 95 -14 2 -48 -5 -77 -15z"/>
<path d="M926 1493 c-3 -3 -6 -107 -6 -230 0 -192 2 -223 15 -223 13 0 15 32
15 224 0 204 -5 248 -24 229z"/>
<path d="M7218 1359 c-22 -12 -23 -52 -3 -69 8 -7 25 -10 39 -6 32 8 40 42 15
67 -22 22 -27 22 -51 8z"/>
<path d="M7166 1236 c3 -7 -4 -21 -16 -31 -11 -10 -20 -23 -20 -30 0 -7 9 -20
20 -30 12 -10 18 -25 16 -32 -8 -19 10 -25 49 -14 21 6 37 6 41 0 3 -5 14 -9
25 -9 14 0 19 6 17 18 -2 11 3 26 10 35 19 23 11 57 -18 78 -31 21 -131 34
-124 15z m92 -13 c-10 -2 -26 -2 -35 0 -10 3 -2 5 17 5 19 0 27 -2 18 -5z"/>
<path d="M5100 705 c0 -12 16 -15 80 -15 64 0 80 3 80 15 0 12 -16 15 -80 15
-64 0 -80 -3 -80 -15z"/>
<path d="M5100 665 c0 -12 16 -15 80 -15 64 0 80 3 80 15 0 12 -16 15 -80 15
-64 0 -80 -3 -80 -15z"/>
<path d="M5100 625 c0 -12 16 -15 80 -15 64 0 80 3 80 15 0 12 -16 15 -80 15
-64 0 -80 -3 -80 -15z"/>
<path d="M4920 590 c0 -6 33 -10 80 -10 47 0 80 4 80 10 0 6 -33 10 -80 10
-47 0 -80 -4 -80 -10z"/>
<path d="M5100 590 c0 -6 33 -10 80 -10 47 0 80 4 80 10 0 6 -33 10 -80 10
-47 0 -80 -4 -80 -10z"/>
<path d="M4920 555 c0 -12 16 -15 80 -15 64 0 80 3 80 15 0 12 -16 15 -80 15
-64 0 -80 -3 -80 -15z"/>
<path d="M5230 555 c0 -8 7 -15 15 -15 8 0 15 7 15 15 0 8 -7 15 -15 15 -8 0
-15 -7 -15 -15z"/>
<path d="M1740 550 c0 -5 20 -10 45 -10 25 0 45 5 45 10 0 6 -20 10 -45 10
-25 0 -45 -4 -45 -10z"/>
<path d="M1850 550 c0 -5 9 -10 20 -10 11 0 20 5 20 10 0 6 -9 10 -20 10 -11
0 -20 -4 -20 -10z"/>
<path d="M1900 550 c0 -5 9 -10 20 -10 11 0 20 5 20 10 0 6 -9 10 -20 10 -11
0 -20 -4 -20 -10z"/>
<path d="M1950 550 c0 -5 20 -10 45 -10 25 0 45 5 45 10 0 6 -20 10 -45 10
-25 0 -45 -4 -45 -10z"/>
<path d="M2060 550 c0 -5 9 -10 20 -10 11 0 20 5 20 10 0 6 -9 10 -20 10 -11
0 -20 -4 -20 -10z"/>
<path d="M2110 550 c0 -6 70 -10 190 -10 120 0 190 4 190 10 0 6 -70 10 -190
10 -120 0 -190 -4 -190 -10z"/>
<path d="M5100 535 c-7 -9 -11 -17 -9 -20 3 -2 10 5 17 15 14 24 10 26 -8 5z"/>
<path d="M5217 524 c10 -18 23 -30 30 -27 15 6 18 33 3 33 -5 0 -10 -5 -10
-11 0 -6 -9 -1 -20 12 l-20 24 17 -31z"/>
<path d="M4920 515 c0 -12 16 -15 80 -15 64 0 80 3 80 15 0 12 -16 15 -80 15
-64 0 -80 -3 -80 -15z"/>
<path d="M5095 473 c-8 -23 37 -63 68 -62 21 1 20 2 -3 9 -14 4 -19 8 -12 9 7
1 12 14 12 31 0 26 -3 30 -29 30 -18 0 -31 -6 -36 -17z m26 -30 c13 -16 12
-17 -3 -4 -17 13 -22 21 -14 21 2 0 10 -8 17 -17z"/>
<path d="M5206 442 l-19 -27 24 22 c12 12 21 24 18 27 -2 2 -13 -8 -23 -22z"/>
<path d="M2120 410 c0 -6 73 -10 200 -10 127 0 200 4 200 10 0 6 -73 10 -200
10 -127 0 -200 -4 -200 -10z"/>
<path d="M2290 330 c0 -5 9 -10 20 -10 11 0 20 5 20 10 0 6 -9 10 -20 10 -11
0 -20 -4 -20 -10z"/>
<path d="M2340 330 c0 -6 65 -10 175 -10 110 0 175 4 175 10 0 6 -65 10 -175
10 -110 0 -175 -4 -175 -10z"/>
</g>
</svg>
